Coordinates
version=1
nRows=9
nColumns=24
inDegrees=yes

Units are S.I. units (second, meters, Newtons, ...)
Angles are in degrees.

endheader
time	pelvis_tilt	pelvis_list	pelvis_rotation	pelvis_tx	pelvis_ty	pelvis_tz	hip_flexion_r	hip_adduction_r	hip_rotation_r	knee_angle_r	ankle_angle_r	subtalar_angle_r	mtp_angle_r	hip_flexion_l	hip_adduction_l	hip_rotation_l	knee_angle_l	ankle_angle_l	subtalar_angle_l	mtp_angle_l	lumbar_extension	lumbar_bending	lumbar_rotation
      5.65000000	      8.51436076	      3.07171727	      6.26880308	      0.07820689	      0.88459032	      0.15366000	    -31.45455781	      1.44149068	     -9.58417754	    -17.31658178	     10.90793672	      8.79149394	      0.00000000	     15.99434005	      8.34726744	      4.65043336	    -14.16302409	      5.02622502	     -9.53201079	      0.00000000	    -27.15675301	     -0.06159972	     -2.48450944
      5.66000000	      8.40532005	      3.61204176	      6.47474088	      0.09509664	      0.88416631	      0.15167035	    -30.17900092	      0.58733700	    -10.17110208	    -20.82059216	      7.84637479	      8.47094845	      0.00000000	     16.99572450	      9.09110477	      3.90434641	    -17.60978170	      6.30914897	     -8.29799957	      0.00000000	    -26.81702559	     -0.70693053	     -2.54975258
      5.67000000	      8.46101707	      4.18894957	      6.53931541	      0.11183957	      0.88422014	      0.15000077	    -28.83392814	     -0.36027009	    -10.41350708	    -24.56685394	      4.44208422	      7.83613835	      0.00000000	     17.56650927	      9.77284214	      3.21569545	    -20.66443526	      7.81259128	     -7.26956067	      0.00000000	    -26.68578510	     -1.44869576	     -2.49484844
      5.68000000	      8.54291394	      4.73112014	      6.44277572	      0.12839235	      0.88456240	      0.14855544	    -27.23687590	     -1.37122076	    -10.35014028	    -28.58154792	      1.00657503	      7.16861594	      0.00000000	     17.78695354	     10.36577097	      2.64819515	    -23.18185606	      9.38343209	     -6.61302982	      0.00000000	    -26.57670435	     -2.19717017	     -2.24241281
      5.69000000	      8.61321161	      5.22918986	      6.18048658	      0.14471372	      0.88515123	      0.14731546	    -25.37057073	     -2.42404833	    -10.00375125	    -32.79480049	     -2.18149565	      6.57934429	      0.00000000	     17.66739222	     10.84898555	      2.05020057	    -25.09271338	     11.03293896	     -6.04288456	      0.00000000	    -26.43672784	     -2.93696276	     -1.79779948
      5.70000000	      8.60648105	      5.70642257	      5.72257433	      0.16082350	      0.88593910	      0.14631060	    -23.20263002	     -3.51351708	     -9.30219414	    -37.11945063	     -4.81226710	      6.15195120	      0.00000000	     17.24703270	     11.24968827	      1.37111455	    -26.32472625	     12.68245338	     -5.56182084	      0.00000000	    -26.17131521	     -3.71096738	     -1.22530632
      5.71000000	      8.51302459	      6.14741575	      5.07169241	      0.17668751	      0.88695052	      0.14556437	    -20.76216456	     -4.57639245	     -8.25295189	    -41.43991142	     -6.63076227	      5.97341060	      0.00000000	     16.56901647	     11.55129741	      0.56192093	    -26.90790257	     14.26180335	     -5.07586384	      0.00000000	    -25.76397003	     -4.49743893	     -0.51657203
      5.72000000	      8.36057974	      6.53765384	      4.27659688	      0.19227865	      0.88824942	      0.14505133	    -18.13594121	     -5.54175935	     -6.95406730	    -45.62056304	     -7.49413082	      6.08394823	      0.00000000	     15.66882060	     11.75212964	     -0.38582010	    -26.93819371	     15.70533756	     -4.56610736	      0.00000000	    -25.25192992	     -5.25392991	      0.29775298
      5.73000000	      8.16564562	      6.85236042	      3.39774051	      0.20760673	      0.88990079	      0.14474335	    -15.40351097	     -6.31925532	     -5.46507122	    -49.52799138	     -7.38607552	      6.47211903	      0.00000000	     14.58583758	     11.85941575	     -1.38871749	    -26.51463959	     16.96466345	     -4.02713666	      0.00000000	    -24.65065299	     -5.93099861	      1.13619624
